<?xml version="1.0" encoding="UTF-8" standalone="no"?>
<svg
   xmlns:dc="http://purl.org/dc/elements/1.1/"
   xmlns:cc="http://creativecommons.org/ns#"
   xmlns:rdf="http://www.w3.org/1999/02/22-rdf-syntax-ns#"
   xmlns:svg="http://www.w3.org/2000/svg"
   xmlns="http://www.w3.org/2000/svg"
   id="svg4592"
   version="1.1"
   viewBox="0 0 18.520826 18.52083"
   height="70"
   width="70">
  <defs
     id="defs4586" />
  <metadata
     id="metadata4589">
    <rdf:RDF>
      <cc:Work
         rdf:about="">
        <dc:format>image/svg+xml</dc:format>
        <dc:type
           rdf:resource="http://purl.org/dc/dcmitype/StillImage" />
        <dc:title></dc:title>
      </cc:Work>
    </rdf:RDF>
  </metadata>
  <g
     transform="translate(3.1190476e-7,-278.47919)"
     id="layer1">
    <g
       id="layer1-7"
       transform="translate(-0.54450972,2.840194)">
      <rect
         ry="1.1071792"
         rx="1.107179"
         y="275.97635"
         x="0.88185591"
         height="17.846134"
         width="17.846136"
         id="rect5326"
         style="opacity:1;fill:#aaaaaa;fill-opacity:1;stroke:#000000;stroke-width:0.26458326;stroke-miterlimit:4;stroke-dasharray:none;stroke-opacity:1" />
      <g
         id="layer1-9"
         transform="matrix(0.93854763,0,0,0.95563916,1.6102306,8.6599308)">
        <path
           style="opacity:1;fill:#000000;fill-opacity:1;stroke:none;stroke-width:1.47315657;stroke-miterlimit:4;stroke-dasharray:none;stroke-opacity:1"
           d="m 5.8208321,281.12503 1.0589567,1.0577 -1.0589559,1.05896 H 2.6458331 l -2.11666647,-2.11667 z"
           id="rect7727-7-5" />
        <path
           style="opacity:1;fill:#000000;fill-opacity:1;stroke:none;stroke-width:0.70003361;stroke-miterlimit:4;stroke-dasharray:none;stroke-opacity:1"
           d="m 2.1166665,287.21044 v -3.43959 L 0,281.65419 v 5.55625 l 1.0583333,1.05833 z"
           id="path7860-8" />
        <path
           style="opacity:1;fill:#000000;fill-opacity:1;stroke:none;stroke-width:0.70003361;stroke-miterlimit:4;stroke-dasharray:none;stroke-opacity:1"
           d="m 6.3499995,287.21044 v -3.43959 l 1.0583332,-1.05833 1.0583332,1.05834 10e-8,3.43958 -1.0583333,1.05833 z"
           id="path7860-8-6" />
        <path
           style="opacity:1;fill:#000000;fill-opacity:1;stroke:none;stroke-width:1.47315657;stroke-miterlimit:4;stroke-dasharray:none;stroke-opacity:1"
           d="m 5.8208329,297.00002 1.0583332,-1.05833 -1.0583332,-1.05834 H 2.6458331 l -2.11666651,2.11667 z"
           id="rect7727-7-5-1" />
        <path
           style="opacity:1;fill:#000000;fill-opacity:1;stroke:none;stroke-width:0.70003361;stroke-miterlimit:4;stroke-dasharray:none;stroke-opacity:1"
           d="m 2.1166665,290.9146 v 3.43959 L -1.1904761e-8,296.47085 V 290.9146 L 1.0583333,289.85627 Z"
           id="path7860-8-3" />
        <path
           style="opacity:1;fill:#000000;fill-opacity:1;stroke:none;stroke-width:0.70003361;stroke-miterlimit:4;stroke-dasharray:none;stroke-opacity:1"
           d="m 6.3499995,290.9146 v 3.43959 l 1.0583332,1.05833 1.0583332,-1.05833 3e-7,-3.43959 -1.058334,-1.05833 z"
           id="path7860-8-6-5" />
        <rect
           style="opacity:1;fill:none;fill-opacity:1;stroke:none;stroke-width:0.44014096;stroke-miterlimit:4;stroke-dasharray:none;stroke-opacity:1"
           id="rect4544"
           width="8.4666662"
           height="15.874999"
           x="0"
           y="281.12503" />
      </g>
      <g
         id="layer1-9-2"
         transform="matrix(0.93854763,0,0,0.95563916,10.053247,8.6599524)">
        <path
           style="opacity:1;fill:#000000;fill-opacity:1;stroke:none;stroke-width:1.47315657;stroke-miterlimit:4;stroke-dasharray:none;stroke-opacity:1"
           d="m 7.9374994,281.12502 -2.1166665,2.11667 H 2.6458331 l -1.0583322,-1.05833 1.058333,-1.05833 z"
           id="rect7727-7-5-5" />
        <path
           style="opacity:1;fill:#000000;fill-opacity:1;stroke:none;stroke-width:0.70003361;stroke-miterlimit:4;stroke-dasharray:none;stroke-opacity:1"
           d="m 2.1166665,287.21044 v -3.43959 L 1.0583343,282.71253 1.3199998e-6,283.77086 0,287.21044 l 1.0583333,1.05833 z"
           id="path7860-8-7" />
        <path
           style="opacity:1;fill:#000000;fill-opacity:1;stroke:none;stroke-width:0.48934135;stroke-miterlimit:4;stroke-dasharray:none;stroke-opacity:1"
           d="M 5.8208329,290.12085 H 2.6458331 l -1.0583332,-1.05833 1.0583332,-1.05834 h 3.1749998 l 1.0583332,1.05834 z"
           id="path7908-0" />
        <path
           style="opacity:1;fill:#000000;fill-opacity:1;stroke:none;stroke-width:1.47315657;stroke-miterlimit:4;stroke-dasharray:none;stroke-opacity:1"
           d="m 5.820833,297.00002 1.058333,-1.05833 -1.0583331,-1.05834 H 2.6458331 l -2.11666651,2.11667 z"
           id="rect7727-7-5-1-6" />
        <path
           style="opacity:1;fill:#000000;fill-opacity:1;stroke:none;stroke-width:0.70003361;stroke-miterlimit:4;stroke-dasharray:none;stroke-opacity:1"
           d="m 6.3499995,290.9146 v 3.43959 l 1.058333,1.05833 1.058333,-1.05833 7e-7,-3.43959 -1.058334,-1.05833 z"
           id="path7860-8-6-5-6" />
        <rect
           style="opacity:1;fill:none;fill-opacity:1;stroke:none;stroke-width:0.44014096;stroke-miterlimit:4;stroke-dasharray:none;stroke-opacity:1"
           id="rect4544-1"
           width="8.4666662"
           height="15.874999"
           x="0"
           y="281.12503" />
      </g>
    </g>
  </g>
</svg>
